<mxfile host="app.diagrams.net" modified="2023-01-29T10:13:19.682Z" agent="5.0 (Macintosh; Intel Mac OS X 10_15_7) AppleWebKit/537.36 (KHTML, like Gecko) Chrome/108.0.0.0 Safari/537.36" etag="m_Pul-20q-d1Z4P5I5OK" version="20.8.13" type="github">
  <diagram name="Page-1" id="74e2e168-ea6b-b213-b513-2b3c1d86103e">
    <mxGraphModel dx="1460" dy="881" grid="1" gridSize="10" guides="1" tooltips="1" connect="1" arrows="1" fold="1" page="1" pageScale="1" pageWidth="1100" pageHeight="850" background="none" math="0" shadow="0">
      <root>
        <mxCell id="0" />
        <mxCell id="1" parent="0" />
        <mxCell id="6bPCbO9TS993li9CQj1C-1" value="埋点数仓" style="ellipse;shape=cloud;whiteSpace=wrap;html=1;fillColor=#ffe6cc;strokeColor=#d79b00;fontStyle=1;fontSize=18;fontFamily=Tahoma;" parent="1" vertex="1">
          <mxGeometry x="340" y="220" width="250" height="120" as="geometry" />
        </mxCell>
        <mxCell id="6bPCbO9TS993li9CQj1C-6" value="" style="image;html=1;image=img/lib/clip_art/computers/iMac_128x128.png;fillStyle=solid;fontFamily=Tahoma;fontSize=18;fillColor=#D5E8D4;opacity=20;" parent="1" vertex="1">
          <mxGeometry x="120" y="480" width="80" height="80" as="geometry" />
        </mxCell>
        <mxCell id="6bPCbO9TS993li9CQj1C-12" value="Android" style="html=1;verticalAlign=bottom;endArrow=block;rounded=0;fontFamily=Tahoma;fontSize=18;exitX=1;exitY=0.5;exitDx=0;exitDy=0;entryX=0.07;entryY=0.4;entryDx=0;entryDy=0;entryPerimeter=0;" parent="1" target="6bPCbO9TS993li9CQj1C-1" edge="1">
          <mxGeometry width="80" relative="1" as="geometry">
            <mxPoint x="220" y="110" as="sourcePoint" />
            <mxPoint x="320" y="170" as="targetPoint" />
          </mxGeometry>
        </mxCell>
        <mxCell id="6bPCbO9TS993li9CQj1C-13" value="IOS" style="html=1;verticalAlign=bottom;endArrow=block;rounded=0;fontFamily=Tahoma;fontSize=18;exitX=1;exitY=0.5;exitDx=0;exitDy=0;entryX=0.07;entryY=0.4;entryDx=0;entryDy=0;entryPerimeter=0;" parent="1" target="6bPCbO9TS993li9CQj1C-1" edge="1">
          <mxGeometry x="0.0212" y="-5" width="80" relative="1" as="geometry">
            <mxPoint x="180" y="260" as="sourcePoint" />
            <mxPoint x="347.204720749063" y="316.1643666928833" as="targetPoint" />
            <mxPoint as="offset" />
          </mxGeometry>
        </mxCell>
        <mxCell id="6bPCbO9TS993li9CQj1C-14" value="" style="verticalLabelPosition=bottom;verticalAlign=top;html=1;shadow=0;dashed=0;strokeWidth=1;shape=mxgraph.android.phone2;strokeColor=#005700;fillStyle=solid;fontFamily=Tahoma;fontSize=18;fillColor=#008a00;fontColor=#ffffff;" parent="1" vertex="1">
          <mxGeometry x="170" y="50" width="45" height="90" as="geometry" />
        </mxCell>
        <mxCell id="6bPCbO9TS993li9CQj1C-15" value="" style="html=1;verticalLabelPosition=bottom;labelBackgroundColor=#ffffff;verticalAlign=top;shadow=0;dashed=0;strokeWidth=1;shape=mxgraph.ios7.misc.iphone;strokeColor=#000000;fillStyle=solid;fontFamily=Tahoma;fontSize=18;fillColor=#6680b8;fontColor=#ffffff;gradientColor=#DADFE8;gradientDirection=west;" parent="1" vertex="1">
          <mxGeometry x="100" y="190" width="50" height="90" as="geometry" />
        </mxCell>
        <mxCell id="6bPCbO9TS993li9CQj1C-16" value="" style="image;html=1;image=img/lib/clip_art/computers/Monitor_128x128.png;fillStyle=solid;fontFamily=Tahoma;fontSize=18;fillColor=#D5E8D4;" parent="1" vertex="1">
          <mxGeometry x="100" y="340" width="80" height="80" as="geometry" />
        </mxCell>
        <mxCell id="6bPCbO9TS993li9CQj1C-17" value="Windows" style="html=1;verticalAlign=bottom;endArrow=block;rounded=0;fontFamily=Tahoma;fontSize=18;exitX=1.038;exitY=0.413;exitDx=0;exitDy=0;exitPerimeter=0;entryX=0.07;entryY=0.4;entryDx=0;entryDy=0;entryPerimeter=0;" parent="1" source="6bPCbO9TS993li9CQj1C-16" target="6bPCbO9TS993li9CQj1C-1" edge="1">
          <mxGeometry width="80" relative="1" as="geometry">
            <mxPoint x="200" y="360" as="sourcePoint" />
            <mxPoint x="280" y="360" as="targetPoint" />
          </mxGeometry>
        </mxCell>
        <mxCell id="6bPCbO9TS993li9CQj1C-18" value="&lt;font color=&quot;#cda2be&quot;&gt;Mac（未支持）&lt;/font&gt;" style="html=1;verticalAlign=bottom;endArrow=open;dashed=1;endSize=8;rounded=0;fontFamily=Tahoma;fontSize=18;exitX=1;exitY=0.5;exitDx=0;exitDy=0;entryX=0.067;entryY=0.447;entryDx=0;entryDy=0;entryPerimeter=0;" parent="1" source="6bPCbO9TS993li9CQj1C-6" target="6bPCbO9TS993li9CQj1C-1" edge="1">
          <mxGeometry relative="1" as="geometry">
            <mxPoint x="370" y="540" as="sourcePoint" />
            <mxPoint x="450" y="260" as="targetPoint" />
          </mxGeometry>
        </mxCell>
        <mxCell id="2mw2rvQoLvaJuhNXDKAa-8" style="edgeStyle=orthogonalEdgeStyle;rounded=0;orthogonalLoop=1;jettySize=auto;html=1;exitX=0.5;exitY=1;exitDx=0;exitDy=0;entryX=0.189;entryY=0;entryDx=0;entryDy=0;entryPerimeter=0;fontSize=17;fontColor=#000000;" edge="1" parent="1" source="2mw2rvQoLvaJuhNXDKAa-2" target="2mw2rvQoLvaJuhNXDKAa-6">
          <mxGeometry relative="1" as="geometry" />
        </mxCell>
        <mxCell id="2mw2rvQoLvaJuhNXDKAa-10" style="edgeStyle=orthogonalEdgeStyle;rounded=0;orthogonalLoop=1;jettySize=auto;html=1;exitX=0;exitY=0.5;exitDx=0;exitDy=0;fontSize=17;fontColor=#000000;entryX=0.92;entryY=0.455;entryDx=0;entryDy=0;entryPerimeter=0;" edge="1" parent="1" source="2mw2rvQoLvaJuhNXDKAa-2" target="6bPCbO9TS993li9CQj1C-1">
          <mxGeometry relative="1" as="geometry">
            <mxPoint x="610" y="274.55555555555543" as="targetPoint" />
          </mxGeometry>
        </mxCell>
        <mxCell id="2mw2rvQoLvaJuhNXDKAa-12" value="SQL + BI" style="edgeLabel;html=1;align=center;verticalAlign=middle;resizable=0;points=[];fontSize=17;fontColor=#000000;" vertex="1" connectable="0" parent="2mw2rvQoLvaJuhNXDKAa-10">
          <mxGeometry x="-0.1974" y="2" relative="1" as="geometry">
            <mxPoint x="10" as="offset" />
          </mxGeometry>
        </mxCell>
        <mxCell id="2mw2rvQoLvaJuhNXDKAa-2" value="异常查询平台&lt;br&gt;（重明系统）" style="rounded=1;whiteSpace=wrap;html=1;fontSize=17;fontColor=#ffffff;fillColor=#1ba1e2;strokeColor=#006EAF;" vertex="1" parent="1">
          <mxGeometry x="690" y="200" width="150" height="150" as="geometry" />
        </mxCell>
        <mxCell id="2mw2rvQoLvaJuhNXDKAa-6" value="业务子系统" style="shape=umlFrame;whiteSpace=wrap;html=1;fontSize=17;fontColor=#000000;width=100;height=50;" vertex="1" parent="1">
          <mxGeometry x="690" y="460" width="400" height="200" as="geometry" />
        </mxCell>
        <mxCell id="2mw2rvQoLvaJuhNXDKAa-17" style="edgeStyle=orthogonalEdgeStyle;rounded=0;orthogonalLoop=1;jettySize=auto;html=1;exitX=0.5;exitY=0;exitDx=0;exitDy=0;fontSize=17;fontColor=#000000;" edge="1" parent="1" source="2mw2rvQoLvaJuhNXDKAa-15">
          <mxGeometry relative="1" as="geometry">
            <mxPoint x="475" y="338" as="targetPoint" />
          </mxGeometry>
        </mxCell>
        <mxCell id="2mw2rvQoLvaJuhNXDKAa-15" value="服务端&lt;br&gt;Service" style="rounded=1;whiteSpace=wrap;html=1;absoluteArcSize=1;arcSize=14;strokeWidth=2;fontSize=17;fontColor=#ffffff;fillColor=#6d8764;strokeColor=#3A5431;" vertex="1" parent="1">
          <mxGeometry x="425" y="498" width="100" height="100" as="geometry" />
        </mxCell>
        <mxCell id="2mw2rvQoLvaJuhNXDKAa-19" value="URS" style="ellipse;shape=cloud;whiteSpace=wrap;html=1;align=center;fontSize=17;fontColor=#000000;" vertex="1" parent="1">
          <mxGeometry x="715" y="518" width="100" height="60" as="geometry" />
        </mxCell>
        <mxCell id="2mw2rvQoLvaJuhNXDKAa-20" value="易盾" style="ellipse;shape=cloud;whiteSpace=wrap;html=1;align=center;fontSize=17;fontColor=#000000;" vertex="1" parent="1">
          <mxGeometry x="830" y="480" width="100" height="60" as="geometry" />
        </mxCell>
        <mxCell id="2mw2rvQoLvaJuhNXDKAa-21" value="易盾" style="ellipse;shape=cloud;whiteSpace=wrap;html=1;align=center;fontSize=17;fontColor=#000000;" vertex="1" parent="1">
          <mxGeometry x="840" y="578" width="100" height="60" as="geometry" />
        </mxCell>
      </root>
    </mxGraphModel>
  </diagram>
</mxfile>
